<svg xmlns="http://www.w3.org/2000/svg" viewBox="0 0 100 100">
    <!-- 
        Logo per Glufri App
        Combina un carrello della spesa con il simbolo "Senza Glutine".
        Colore Primario: Verde (#4CAF50), come da app_theme.dart.
    -->
    <defs>
        <style>
            .cart { fill: none; stroke: #4CAF50; stroke-width: 4; stroke-linecap: round; stroke-linejoin: round; }
            .wheat-stem { fill: none; stroke: #E6B938; stroke-width: 3.5; stroke-linecap: round; }
            .no-sign-circle { fill: none; stroke: #D32F2F; stroke-width: 4; }
            .no-sign-slash { fill: none; stroke: #D32F2F; stroke-width: 4; stroke-linecap: round; }
        </style>
    </defs>
    
    <!-- Carrello della spesa -->
    <g class="cart">
        <path d="M25 75 L30 75" /> <!-- Ruota posteriore -->
        <circle cx="30" cy="80" r="5" />
        <path d="M70 75 L75 75" /> <!-- Ruota anteriore -->
        <circle cx="75" cy="80" r="5" />
        <path d="M10 20 H20 L30 65 H80 L90 35 H25" /> <!-- Cesto e manico -->
        <path d="M40 50 L70 50" /> <!-- Linea interna del cesto -->
        <path d="M35 57 L75 57" /> <!-- Linea interna del cesto -->
    </g>

    <!-- Simbolo Senza Glutine -->
    <g>
        <!-- Spiga di Grano -->
        <path class="wheat-stem" d="M55 40 Q 52 45, 55 50" />
        <path class="wheat-stem" d="M55 40 Q 58 45, 55 50" />
        <path class="wheat-stem" d="M55 45 Q 52 50, 55 55" />
        <path class="wheat-stem" d="M55 45 Q 58 50, 55 55" />
        <path class="wheat-stem" d="M55 50 Q 52 55, 55 60" />
        <path class="wheat-stem" d="M55 50 Q 58 55, 55 60" />
        <path class="wheat-stem" d="M55 35 V 65" />

        <!-- Simbolo di divieto -->
        <circle class="no-sign-circle" cx="55" cy="50" r="15" />
        <line class="no-sign-slash" x1="44" y1="40" x2="66" y2="60" />
    </g>
</svg>